{"title":"Punisher.War.Zone.2008.1080p.BluRay.x264-SECTOR7","uid":12922058,"size":8512117686,"categoryP":"video","categoryS":"hd___movies","magnet":"?xt=urn:btih:e41eb0731cd57c27ce72e9d6d48cf05544ed444f&amp;dn=Punisher.War.Zone.2008.1080p.BluRay.x264-SECTOR7&amp;tr=udp%3A%2F%2Ftracker.leechers-paradise.org%3A6969&amp;tr=udp%3A%2F%2Fzer0day.ch%3A1337&amp;tr=udp%3A%2F%2Fopen.demonii.com%3A1337&amp;tr=udp%3A%2F%2Ftracker.coppersurfer.tk%3A6969&amp;tr=udp%3A%2F%2Fexodus.desync.com%3A6969","seeders":0,"leechers":1,"uploader":"TheRival","files":3,"time":1449426097,"description":"Screens: \nhttp://extraimago.com/image/Ghw \nhttp://extraimago.com/image/Gh2 \nhttp://extraimago.com/image/GhN \nhttp://extraimago.com/image/GhT \nhttp://extraimago.com/image/Ghj \nhttp://extraimago.com/image/Ghn\r\n\r\nVideo\r\nID                                       : 1\r\nFormat                                   : AVC\r\nFormat/Info                              : Advanced Video Codec\r\nFormat profile                           :   \r\nFormat settings, CABAC                   : Yes\r\nFormat settings, ReFrames                : 5 frames\r\nCodec ID                                 : V_MPEG4/ISO/AVC\r\nDuration                                 : 1h 42mn\r\nBit rate                                 : 9 538 Kbps\r\nWidth                                    : 1 920 pixels\r\nHeight                                   : 800 pixels\r\nDisplay aspect ratio                     : 2.40:1\r\nFrame rate mode                          : Constant\r\nFrame rate                               : 23.976 fps\r\nColor space                              : YUV\r\nChroma subsampling                       : 4:2:0\r\nBit depth                                : 8 bits\r\nScan type                                : Progressive\r\nBits/(Pixel*Frame)                       : 0.259\r\nStream size                              : 6.69 GiB (84%)\r\nWriting library                          : x264 core 66 r1113M cc4f807\r\nEncoding settings                        : cabac=1 / ref=5 / deblock=1:0:0 / analyse=0x3:0x133 / me=umh / subme=7 / psy_rd=1.0:0.0 / mixed_ref=1 / me_range=16 / chroma_me=1 / trellis=1 / 8x8dct=1 / cqm=1 / deadzone=21,11 / chroma_qp_offset=-2 / threads=3 / nr=0 / decimate=1 / mbaff=0 / bframes=3 / b_pyramid=1 / b_adapt=1 / b_bias=0 / direct=3 / wpredb=1 / keyint=240 / keyint_min=24 / scenecut=40(pre) / rc=2pass / bitrate=9538 / ratetol=1.0 / qcomp=0.60 / qpmin=10 / qpmax=51 / qpstep=4 / cplxblur=20.0 / qblur=0.5 / ip_ratio=1.40 / pb_ratio=1.30 / aq=1:1.00\r\nLanguage                                 : English\r\nDefault                                  : Yes\r\nForced                                   : No\r\n\r\nAudio\r\nID                                       : 2\r\nFormat                                   : DTS\r\nFormat/Info                              : Digital Theater Systems\r\nMode                                     : 16\r\nFormat settings, Endianness              : Big\r\nCodec ID                                 : A_DTS\r\nDuration                                 : 1h 42mn\r\nBit rate mode                            : Constant\r\nBit rate                                 : 1 509 Kbps\r\nChannel(s)                               : 6 channels\r\nChannel positions                        : Front: L C R, Side: L R, LFE\r\nSampling rate                            : 48.0 KHz\r\nBit depth                                : 24 bits\r\nCompression mode                         : Lossy\r\nStream size                              : 1.08 GiB (14%)\r\nDefault                                  : Yes\r\nForced                                   : No","torrent":{"xt":"urn:btih:e41eb0731cd57c27ce72e9d6d48cf05544ed444f","amp;dn":"Punisher.War.Zone.2008.1080p.BluRay.x264-SECTOR7","amp;tr":["udp%3A%2F%2Ftracker.leechers-paradise.org%3A6969","udp%3A%2F%2Fzer0day.ch%3A1337","udp%3A%2F%2Fopen.demonii.com%3A1337","udp%3A%2F%2Ftracker.coppersurfer.tk%3A6969","udp%3A%2F%2Fexodus.desync.com%3A6969"],"infoHash":"e41eb0731cd57c27ce72e9d6d48cf05544ed444f","infoHashBuffer":{"type":"Buffer","data":[228,30,176,115,28,213,124,39,206,114,233,214,212,140,240,85,68,237,68,79]},"announce":[],"urlList":[]}}